<svg width="42" height="66" viewBox="0 0 42 66" fill="none" xmlns="http://www.w3.org/2000/svg">
<path d="M32.3424 20.9371C32.5307 21.741 32.6576 22.5613 32.7559 23.3815C32.805 23.7917 32.8418 24.2059 32.8664 24.6201C32.895 25.0344 32.9114 25.4486 32.9155 25.8629C32.9278 26.6954 32.891 27.528 32.7804 28.3647C32.7272 28.783 32.6494 29.1973 32.5471 29.6115L32.4652 29.9191C32.4324 30.0216 32.3997 30.1242 32.3669 30.2226L32.3424 30.3005L32.3137 30.3743L32.2564 30.5261C32.2359 30.5753 32.2195 30.6245 32.195 30.6778L32.1295 30.8255L32.064 30.9731C32.0435 31.0224 32.0148 31.0716 31.9862 31.1167L31.9084 31.2602L31.8347 31.3956C31.7856 31.4817 31.7365 31.5637 31.6914 31.654C31.6464 31.7401 31.6014 31.8303 31.5604 31.9164C31.3885 32.2733 31.2534 32.6465 31.1428 33.032C30.9177 33.8031 30.7948 34.6192 30.6761 35.4313C30.5574 36.2475 30.4346 37.0677 30.2012 37.8675C29.9679 38.6673 29.6403 39.4506 29.19 40.1602C29.0836 40.3406 28.9567 40.5129 28.8379 40.6851C28.7765 40.7713 28.711 40.8533 28.6455 40.9353L28.5473 41.0625L28.4449 41.1814L28.2402 41.4234L28.0232 41.6531L27.9127 41.7679C27.8758 41.8048 27.839 41.8417 27.8022 41.8786L27.5852 42.1001C26.9997 42.6825 26.3897 43.2444 25.7675 43.7858C25.1452 44.3312 24.5065 44.8562 23.8638 45.3689L22.9058 46.1317C22.7461 46.2589 22.5905 46.386 22.4391 46.5132C22.2876 46.6403 22.1402 46.7715 21.9928 46.9028C21.8495 47.034 21.7144 47.1694 21.5875 47.3129C21.4606 47.4524 21.346 47.6 21.2436 47.7518L21.2068 47.8092L21.1699 47.8666L21.0881 47.9978L21.0389 48.0758L21.0144 48.1127L20.9857 48.1496L20.8752 48.2931C20.7237 48.4736 20.5558 48.6294 20.3839 48.773C19.6838 49.3349 18.8732 49.6876 18.0217 49.864C17.5959 49.9542 17.1578 49.9829 16.7239 49.9542L16.5601 49.9419C16.5069 49.9378 16.4537 49.9296 16.3964 49.9214C16.3431 49.9132 16.2899 49.9091 16.2367 49.8968L16.077 49.864C15.8642 49.8188 15.6554 49.7491 15.4548 49.6671C15.0535 49.5071 14.6892 49.2611 14.378 48.9658C14.071 48.6705 13.8213 48.326 13.6248 47.9609L13.6903 47.9199C13.94 48.2439 14.2225 48.5351 14.5418 48.7689C14.8611 49.0027 15.2132 49.1831 15.5858 49.2898C15.7741 49.3431 15.9624 49.3841 16.1548 49.4046L16.2981 49.421C16.3472 49.4251 16.3964 49.4251 16.4414 49.4292C16.4905 49.4292 16.5356 49.4374 16.5847 49.4374H16.728C17.1128 49.4292 17.4976 49.3677 17.8702 49.2611C18.2427 49.1544 18.603 49.0109 18.9428 48.8345C19.2826 48.6582 19.6019 48.4367 19.8803 48.1947C20.0154 48.0676 20.1423 47.9363 20.2529 47.801L20.3266 47.6943L20.347 47.6697L20.3634 47.641L20.3962 47.5877L20.4125 47.5631C20.4166 47.5549 20.4248 47.5467 20.4289 47.5344L20.4699 47.4606L20.5108 47.3867L20.5558 47.3129C20.6787 47.1202 20.8138 46.9397 20.957 46.7715C21.1003 46.6034 21.2559 46.4475 21.4074 46.2999C21.7185 46.0046 22.0419 45.738 22.3695 45.4796C22.697 45.2212 23.0204 44.971 23.3479 44.725C23.9989 44.2287 24.6457 43.7365 25.2803 43.2198C25.9148 42.7071 26.5289 42.1739 27.1471 41.6407L27.3764 41.4398C27.4132 41.407 27.4542 41.3742 27.491 41.3373L27.6015 41.2347L27.8226 41.0337L28.0355 40.8205L28.142 40.7138L28.2443 40.6031L28.4449 40.3816C28.5718 40.2258 28.7028 40.0781 28.8215 39.9141C28.9444 39.7541 29.0549 39.586 29.1654 39.4219L29.321 39.1635C29.3456 39.1225 29.3701 39.0774 29.3947 39.0323L29.4643 38.901C29.4889 38.8559 29.5134 38.8108 29.5339 38.7657L29.5994 38.6304C29.6403 38.5401 29.6854 38.4499 29.7222 38.3556C29.8 38.171 29.8696 37.9782 29.9351 37.7896C30.1889 37.0185 30.3199 36.2106 30.41 35.3985C30.5042 34.5823 30.5533 33.758 30.7089 32.9295C30.7867 32.5152 30.889 32.1051 31.0364 31.6991C31.0732 31.6006 31.1142 31.4981 31.1551 31.3997C31.196 31.3012 31.2452 31.2028 31.2861 31.1044L31.3189 31.0306L31.3475 30.9649L31.4089 30.8337C31.4499 30.7476 31.4826 30.6573 31.5195 30.563C31.6587 30.198 31.7733 29.8248 31.8593 29.4351C31.8716 29.3859 31.8838 29.3408 31.892 29.2916L31.9248 29.1439C31.9452 29.0455 31.9657 28.9512 31.9821 28.8527L32.0353 28.5574L32.0803 28.2621C32.1377 27.8643 32.1868 27.4665 32.2195 27.0604C32.2277 26.9579 32.2359 26.8595 32.2441 26.757C32.2523 26.6544 32.2605 26.556 32.2646 26.4534C32.2769 26.2525 32.2891 26.0474 32.2973 25.8465C32.3628 24.2223 32.326 22.5859 32.2523 20.9412L32.3424 20.9371Z" fill="#111825"/>
<path d="M27.3683 25.4367C27.1308 25.6746 27.1186 26.0889 27.5198 25.9371C27.921 25.7854 28.4737 25.8387 28.9731 25.9371C29.4726 26.0355 31.1675 25.8838 31.4295 24.7313C31.6792 23.6281 31.7284 23.5788 31.7284 23.5788C31.7284 23.5788 31.0856 23.6116 30.5247 23.3779C29.9229 23.1277 28.5187 23.3779 27.921 24.4811C27.4379 25.367 27.5689 25.2358 27.3683 25.4367Z" fill="#111825"/>
<path d="M27.2454 24.3542C27.3395 23.9933 27.5197 23.6611 27.7489 23.3617C27.8636 23.214 27.9946 23.0746 28.1419 22.9515C28.1788 22.9228 28.2156 22.89 28.2525 22.8613L28.3712 22.7793L28.494 22.7014C28.535 22.6767 28.58 22.6562 28.6209 22.6316C28.6619 22.607 28.7069 22.5906 28.7519 22.5701L28.8174 22.5414L28.887 22.5168C28.9771 22.484 29.0713 22.4635 29.1654 22.4389C29.3538 22.402 29.5503 22.3938 29.7386 22.402C30.1193 22.4348 30.4837 22.5537 30.7989 22.7424C30.4387 22.6644 30.0825 22.6111 29.7345 22.6275C29.5625 22.6398 29.3906 22.6603 29.2227 22.7014C29.059 22.7465 28.8952 22.8039 28.7438 22.8818C28.4367 23.0336 28.1624 23.2509 27.9127 23.5052C27.667 23.7636 27.446 24.0466 27.2454 24.3542Z" fill="#111825"/>
<path d="M32.7312 25.937C34.8846 26.4373 35.99 25.535 38.1926 24.6327C40.3992 23.7304 42 25.6376 42 25.6376C41.8485 19.8137 39.0441 19.6127 38.5447 19.666C38.0452 19.7152 37.4434 20.6708 35.1385 19.7152C32.8336 18.7596 32.0066 19.789 32.0066 19.789C32.0066 19.789 32.4569 20.6421 32.7312 25.7893V25.937Z" fill="#111825"/>
<path d="M29.8247 15.3801C30.1277 15.6672 30.4306 15.942 30.7418 16.2045C31.0529 16.4711 31.3722 16.7213 31.7038 16.9468C31.8676 17.0617 32.0354 17.1642 32.2074 17.2585C32.3793 17.3529 32.5554 17.4308 32.7273 17.4882C32.7724 17.5005 32.8133 17.5128 32.8583 17.5251C32.9034 17.5374 32.9443 17.5415 32.9934 17.5497C33.0426 17.5579 33.0876 17.562 33.1367 17.5702C33.1859 17.5785 33.235 17.5826 33.2841 17.5908C33.4806 17.6113 33.6812 17.6318 33.8859 17.6523C34.0906 17.6687 34.2953 17.6933 34.5 17.7138C34.7047 17.7384 34.9135 17.763 35.1223 17.7958C35.5358 17.8614 35.9534 17.9558 36.3587 18.087C36.764 18.2183 37.157 18.3905 37.5214 18.612C37.8857 18.8335 38.2173 19.1001 38.4957 19.4118C38.1232 19.219 37.7547 19.0467 37.3781 18.9114C37.0014 18.776 36.6166 18.6694 36.2236 18.5874C36.0271 18.5464 35.8306 18.5095 35.634 18.4766C35.4375 18.4479 35.2369 18.4151 35.0363 18.3905C34.8357 18.3659 34.6351 18.3413 34.4345 18.3208C34.2339 18.2962 34.0292 18.2757 33.8204 18.247C33.6157 18.2224 33.4069 18.1937 33.1981 18.1526C33.0917 18.1321 32.9893 18.1116 32.8829 18.0829C32.8338 18.0706 32.7724 18.0542 32.715 18.0378C32.6577 18.0214 32.6045 18.0009 32.5513 17.9804C32.1255 17.8081 31.7775 17.5497 31.45 17.275C31.1266 16.9961 30.8359 16.6967 30.5657 16.3768C30.2955 16.0651 30.0458 15.7287 29.8247 15.3801Z" fill="#111825"/>
<path d="M10.7835 18.157C10.7835 18.157 9.48165 16.701 7.42648 17.755C5.37131 18.8091 5.07245 18.0052 4.2209 17.8043C3.36936 17.6033 0.7656 17.755 0.462646 23.2755C0.462646 23.2755 2.76755 21.6677 4.42151 22.7218C6.07547 23.7758 8.47863 24.1778 9.28104 23.8743C9.28104 23.8784 8.7038 20.8926 10.7835 18.157Z" fill="#111825"/>
<path d="M11.7744 26.2693C11.7744 26.2693 11.4264 25.2235 10.8451 24.5221C10.2637 23.8249 9.74378 23.706 9.45311 23.8249C9.16244 23.9397 9.16244 25.6295 10.3824 25.8017C11.6024 25.9781 11.7744 26.2693 11.7744 26.2693Z" fill="#111825"/>
<path d="M11.455 23.9765C11.3035 23.8288 11.152 23.6853 10.9883 23.5581C10.8286 23.4269 10.6608 23.3121 10.4806 23.2177C10.3005 23.1234 10.1163 23.0455 9.91976 23.0086C9.72325 22.9675 9.51855 22.9634 9.30566 22.988C9.40392 22.9429 9.50627 22.9101 9.61271 22.8937C9.71915 22.8773 9.82969 22.8691 9.94023 22.8814C10.1572 22.9019 10.3701 22.9716 10.5625 23.0742C10.7549 23.1808 10.9269 23.3121 11.0784 23.4638C11.2257 23.6156 11.3608 23.7878 11.455 23.9765Z" fill="#111825"/>
<path d="M22.4597 41.7968C22.3368 42.5432 22.1239 43.2733 21.8578 43.9869C21.7227 44.3437 21.5672 44.6923 21.3952 45.0327C21.3093 45.205 21.2192 45.3732 21.1209 45.5372C21.0268 45.7013 20.9244 45.8653 20.818 46.0253C20.3881 46.661 19.8641 47.2475 19.2295 47.7109L19.1108 47.7971L18.988 47.8791C18.9061 47.9365 18.8201 47.9816 18.7382 48.0349C18.6523 48.08 18.5663 48.1334 18.4762 48.1744L18.3411 48.24L18.206 48.2974C17.8417 48.4533 17.4568 48.564 17.0679 48.6296C16.286 48.7609 15.4794 48.7035 14.7221 48.5312C14.3413 48.4451 13.9647 48.3343 13.5962 48.1908C13.5021 48.158 13.412 48.1129 13.3219 48.0759C13.2319 48.0349 13.1418 47.9898 13.0517 47.9447L12.9207 47.875L12.8552 47.8381L12.7897 47.8012L12.6628 47.7232L12.5359 47.6412L12.4745 47.6002L12.4131 47.5551L12.2902 47.4649C12.2125 47.3992 12.1306 47.3377 12.0569 47.268C11.9791 47.2024 11.9095 47.1285 11.8358 47.0547C11.799 47.0178 11.7662 46.9809 11.7335 46.944C11.6966 46.9071 11.6639 46.8661 11.6352 46.8291C11.5697 46.7512 11.5083 46.6692 11.4469 46.5872C11.3896 46.501 11.3323 46.419 11.279 46.3288C11.1726 46.1524 11.0784 45.972 11.0007 45.7833C10.8451 45.406 10.7427 45.0122 10.6854 44.6144C10.6281 44.2166 10.6117 43.8188 10.624 43.425C10.6527 42.6376 10.8 41.8706 10.9843 41.1283L11.1235 40.5787C11.148 40.4885 11.1685 40.3982 11.189 40.3121C11.2094 40.226 11.2299 40.1357 11.234 40.0701C11.234 40.0619 11.2381 40.0537 11.2381 40.0455C11.2381 40.0414 11.2381 40.0332 11.2381 40.0291V39.9594C11.2381 39.9102 11.2422 39.8609 11.2422 39.8117C11.2463 39.7133 11.2545 39.6108 11.2627 39.5123C11.2831 39.3114 11.3159 39.1063 11.3732 38.9053C11.4019 38.8028 11.4346 38.7003 11.4796 38.6018C11.5165 38.5157 11.5492 38.4337 11.582 38.3475C11.6475 38.1794 11.7048 38.0071 11.7539 37.8349C11.8031 37.6626 11.844 37.4863 11.8809 37.3099C11.9136 37.1335 11.9382 36.9572 11.9545 36.7767C11.9709 36.6004 11.9791 36.4199 11.975 36.2395C11.975 36.1492 11.9709 36.059 11.9668 35.9729C11.9627 35.8826 11.9545 35.7883 11.9464 35.6981C11.9136 35.3331 11.8604 34.9721 11.7621 34.6399C11.7376 34.5579 11.7089 34.4759 11.6762 34.402C11.6598 34.3651 11.6434 34.3282 11.6229 34.2954C11.6147 34.279 11.6025 34.2626 11.5943 34.2462L11.5779 34.2216L11.5574 34.1888C11.4428 34.0083 11.3568 33.8238 11.2831 33.6392C11.1398 33.2701 11.0375 32.8969 10.9515 32.5195C10.7878 31.769 10.6854 31.0143 10.6158 30.2556C10.5831 29.8783 10.5626 29.4968 10.5503 29.1154C10.5462 29.0211 10.5462 28.9267 10.538 28.8365C10.5339 28.7463 10.5258 28.652 10.5135 28.5617C10.493 28.3772 10.4643 28.1967 10.4234 28.0121C10.3456 27.6471 10.231 27.2903 10.0877 26.9458C10.0509 26.8597 10.014 26.7735 9.98125 26.6792C9.9485 26.589 9.92394 26.4987 9.89937 26.4044C9.85434 26.2199 9.82978 26.0312 9.82568 25.8425C9.85025 26.0312 9.89119 26.2158 9.9485 26.3921C9.97716 26.4823 10.0099 26.5685 10.0509 26.6546C10.0877 26.7407 10.1327 26.8187 10.1778 26.9048C10.3497 27.2452 10.493 27.5979 10.5994 27.967C10.6527 28.1516 10.6977 28.3403 10.7304 28.5289C10.7468 28.6232 10.7591 28.7176 10.7714 28.816C10.7837 28.9103 10.7919 29.0088 10.8 29.099C10.8369 29.4722 10.8778 29.8454 10.9351 30.2146C11.0416 30.9569 11.1726 31.6952 11.3691 32.4129C11.4674 32.7697 11.5779 33.1224 11.7212 33.4505C11.7949 33.6146 11.8727 33.7704 11.9668 33.9058L12.0078 33.9673C12.0241 33.9919 12.0405 34.0165 12.0528 34.037C12.0815 34.0862 12.106 34.1314 12.1306 34.1806C12.1797 34.279 12.2166 34.3733 12.2493 34.4718C12.3803 34.8614 12.4458 35.2469 12.4909 35.6325C12.5031 35.7309 12.5113 35.8252 12.5195 35.9236C12.5277 36.0221 12.5359 36.1205 12.5359 36.223C12.5441 36.4199 12.54 36.6209 12.5277 36.8177C12.5154 37.0146 12.4909 37.2115 12.4581 37.4083C12.4253 37.6052 12.3803 37.798 12.3312 37.9866C12.2821 38.1794 12.2207 38.3681 12.1511 38.5526C12.1183 38.6428 12.0815 38.7372 12.0446 38.8274C12.016 38.9012 11.9914 38.9792 11.9668 39.0612C11.9259 39.2211 11.8972 39.3934 11.8809 39.5656C11.8727 39.6518 11.8686 39.742 11.8645 39.8281C11.8645 39.8732 11.8604 39.9184 11.8604 39.9635V40.0332L11.8563 40.0865C11.8563 40.1029 11.8522 40.1193 11.8522 40.1357C11.8399 40.2547 11.8153 40.3531 11.7949 40.4515C11.7744 40.55 11.7498 40.6402 11.7294 40.7345L11.5943 41.2841C11.4182 42.006 11.2872 42.7319 11.2586 43.4537C11.2299 44.1756 11.3118 44.8933 11.5779 45.5372C11.6434 45.6972 11.7212 45.853 11.8072 46.0007C11.8481 46.0745 11.8972 46.1483 11.9464 46.218C11.9996 46.2878 12.0487 46.3575 12.1019 46.4231C12.1306 46.4559 12.1551 46.4887 12.1838 46.5215C12.2125 46.5544 12.2411 46.5872 12.2698 46.62C12.3312 46.6815 12.3885 46.743 12.454 46.8004C12.5154 46.8619 12.585 46.9153 12.6505 46.9727L12.7529 47.0506L12.8061 47.0916L12.8593 47.1285L12.9658 47.2024L13.0763 47.2721L13.1336 47.309L13.1909 47.3418L13.3056 47.4074C13.3833 47.4484 13.4611 47.4895 13.543 47.5264C13.6249 47.5633 13.7027 47.6043 13.7886 47.6371C14.1203 47.7766 14.4641 47.8873 14.8203 47.9734C15.1724 48.0636 15.5286 48.1252 15.8888 48.1498C16.245 48.1785 16.6053 48.1744 16.9615 48.1252C17.6697 48.0349 18.3534 47.7724 18.9552 47.3705L19.0125 47.3336L19.0699 47.2926L19.1804 47.2147C19.25 47.1572 19.3278 47.1039 19.3974 47.0465C19.5407 46.9317 19.6717 46.8086 19.8068 46.6815C19.9378 46.5543 20.0647 46.419 20.1834 46.2796C20.3021 46.1401 20.4209 45.9966 20.5314 45.8489C20.9776 45.2583 21.3502 44.6062 21.6654 43.9254C21.8251 43.585 21.9643 43.2364 22.0953 42.8836C22.2468 42.5227 22.3614 42.1659 22.4597 41.7968Z" fill="#111825"/>
<path d="M16.7525 41.805C15.6594 41.6369 15.4179 42.8468 15.4179 42.8468C15.4179 42.8468 15.3565 41.6164 14.2511 41.6574C13.1457 41.6943 12.0281 40.1194 12.0281 40.1194C12.1591 40.4393 12.765 41.3088 13.1048 41.5385C13.4446 41.7681 13.4814 41.6451 13.6329 41.9855C14.3166 43.5235 15.1436 43.7409 15.1845 43.8475C15.2296 43.9541 15.3073 45.2625 15.3073 45.2625C15.3073 45.2625 15.5284 43.9747 15.5857 43.8721C15.643 43.7696 16.5232 43.5235 17.3339 42.207C17.5304 41.8912 17.5467 42.0101 17.907 41.8255C18.2673 41.6369 18.9633 40.8453 19.1311 40.5459C19.1311 40.5418 17.8497 41.9732 16.7525 41.805Z" fill="#111825"/>
<path d="M2.69409 17.5787C2.84147 17.39 3.01751 17.2259 3.20174 17.0701C3.38597 16.9183 3.58658 16.7789 3.79537 16.6559C4.21295 16.4098 4.66738 16.217 5.13819 16.0858C5.37564 16.0201 5.61309 15.9709 5.85873 15.9299C5.92013 15.9217 5.98154 15.9135 6.04295 15.9053L6.22718 15.8848C6.35 15.8725 6.46873 15.8643 6.59155 15.8602C7.07463 15.8356 7.54953 15.8479 8.02034 15.8602C8.95786 15.8848 9.879 15.9176 10.7715 15.7495C11.2177 15.6674 11.6517 15.5362 12.0611 15.3393C12.4746 15.1425 12.8635 14.88 13.2279 14.5806C12.9536 14.9702 12.6097 15.3147 12.2085 15.5936C11.8073 15.8725 11.3528 16.0776 10.8779 16.2129C10.4071 16.3482 9.91994 16.4221 9.43685 16.4508C8.95376 16.4836 8.47477 16.4795 8.00396 16.4713C7.53316 16.4631 7.06644 16.4467 6.60792 16.4508C6.49329 16.4549 6.37866 16.4549 6.26403 16.459L6.09618 16.4672C6.03886 16.4713 5.98564 16.4754 5.92832 16.4795C5.70315 16.4959 5.47799 16.5287 5.25691 16.5656C4.81067 16.6476 4.36852 16.7666 3.94275 16.9347C3.5047 17.1111 3.08711 17.3121 2.69409 17.5787Z" fill="#111825"/>
<path d="M10.9883 31.7157C10.9473 31.8633 10.8982 32.011 10.845 32.1586C10.7917 32.3022 10.7344 32.4498 10.6771 32.5934C10.5584 32.8805 10.4315 33.1635 10.2923 33.4383C10.0139 33.9919 9.69866 34.5292 9.35477 35.046C8.66289 36.0795 7.83591 37.0269 6.90658 37.8677C6.66913 38.0728 6.43577 38.2779 6.18604 38.4665C5.9404 38.6634 5.68248 38.8397 5.42866 39.0202L5.03564 39.2745L4.93738 39.336C4.90463 39.3565 4.87188 39.377 4.83913 39.3975L4.63443 39.5124L4.42973 39.6272C4.36013 39.6641 4.29463 39.7051 4.22503 39.7379L3.80745 39.9512L3.7051 40.0045L3.59866 40.0537L3.38577 40.1481L3.17288 40.2424C3.13604 40.2588 3.10329 40.2752 3.06644 40.2875L2.9559 40.3285L2.51785 40.4926L2.40731 40.5336L2.29678 40.5705L2.0757 40.6402L1.85463 40.71L1.74409 40.7428C1.70724 40.7551 1.6704 40.7633 1.62946 40.7715C1.47798 40.8084 1.3306 40.8453 1.17912 40.8822C1.02765 40.9191 0.87617 40.9478 0.724694 40.9724C0.573217 40.9971 0.42174 41.0258 0.270264 41.0463C0.413552 40.9889 0.556841 40.9355 0.70013 40.8822L0.91711 40.8043L0.970331 40.7838L1.02355 40.7633L1.13 40.7182C1.26919 40.6566 1.41248 40.6033 1.55167 40.5459C1.58852 40.5295 1.62127 40.5172 1.65812 40.5008L1.76047 40.4516L1.96926 40.3572L2.17805 40.2629L2.2804 40.2178L2.38275 40.1645L2.78805 39.9594L2.8904 39.9102L2.98866 39.8569L3.18926 39.7461L3.38986 39.6354L3.48812 39.5821L3.58637 39.5247L3.9753 39.2909C4.0408 39.254 4.10221 39.213 4.16772 39.172L4.35604 39.0489L4.54436 38.9259C4.60577 38.8849 4.66718 38.8397 4.72859 38.7987L5.09705 38.5403C5.3345 38.3558 5.58013 38.1835 5.8094 37.9867C6.04685 37.8021 6.27201 37.6011 6.49718 37.4043C7.38967 36.6004 8.21665 35.7145 8.96584 34.7589C9.34249 34.2831 9.69457 33.791 10.0344 33.2824C10.3701 32.7779 10.6935 32.2571 10.9883 31.7157Z" fill="#111825"/>
<path d="M27.3641 42.1905C26.926 43.1789 26.488 44.1592 26.0745 45.1476C25.8698 45.6398 25.6692 46.136 25.4767 46.6323L24.9118 48.1252C24.7276 48.6255 24.5392 49.1218 24.3796 49.6345C24.2199 50.143 24.0848 50.6639 24.0029 51.193C23.9865 51.3242 23.9661 51.4596 23.9538 51.5908C23.9415 51.7221 23.9333 51.8574 23.921 51.9886C23.9129 52.124 23.9006 52.2593 23.8924 52.3947C23.8883 52.4275 23.8883 52.4644 23.8842 52.4972L23.8719 52.5998L23.8514 52.8048C23.7859 53.3462 23.6918 53.8876 23.5649 54.4208C23.3192 55.4912 22.9303 56.5206 22.4513 57.505C22.2139 57.9971 21.96 58.4811 21.6898 58.9568C21.4196 59.4326 21.129 59.892 20.826 60.3431C20.2119 61.2413 19.5446 62.1026 18.8241 62.9187C18.4638 63.3248 18.0953 63.7267 17.7146 64.1081C17.3339 64.4937 16.9367 64.8628 16.5232 65.2155L16.4741 65.1663C17.7842 63.4478 19.0492 61.7212 20.2078 59.9289C20.4985 59.4818 20.7851 59.0307 21.0635 58.5795C21.3418 58.1243 21.612 57.669 21.8659 57.2015C22.1238 56.7339 22.3531 56.2582 22.5823 55.7783C22.6969 55.5404 22.8034 55.2943 22.9098 55.0524L23.0613 54.6832C23.1104 54.5602 23.1555 54.4331 23.2046 54.31C23.3847 53.8096 23.5362 53.297 23.6222 52.772L23.6549 52.5751C23.6672 52.5095 23.6754 52.4439 23.6795 52.3783C23.6918 52.247 23.7041 52.1158 23.7163 51.9804L23.745 51.5744C23.7614 51.4391 23.7696 51.3037 23.7859 51.1684C23.8473 50.627 23.9169 50.0897 24.0111 49.5483C24.1053 49.0111 24.2158 48.4738 24.3673 47.9488C24.5147 47.4238 24.6989 46.9071 24.9077 46.4067C25.1165 45.9022 25.3457 45.4101 25.5914 44.922C25.837 44.4381 26.1031 43.9623 26.3856 43.4989C26.6722 43.0354 26.971 42.5843 27.3108 42.1577L27.3641 42.1905Z" fill="#111825"/>
<path d="M12.8101 14.9697C12.8878 14.8795 12.9656 14.7852 13.0393 14.6908C13.113 14.5965 13.1867 14.5022 13.2563 14.4037C13.3955 14.211 13.5224 14.01 13.6248 13.8049L13.6616 13.727L13.6984 13.6491C13.723 13.5999 13.7435 13.5424 13.768 13.485C13.8131 13.3743 13.8622 13.2595 13.9154 13.1446C14.026 12.9149 14.157 12.6894 14.3248 12.4843C14.4067 12.3818 14.4968 12.2833 14.595 12.1931C14.6933 12.1029 14.7956 12.0208 14.9062 11.9429C15.1231 11.7912 15.3606 11.6722 15.6062 11.582C16.0934 11.3974 16.6052 11.3277 17.1087 11.3236C17.3585 11.3236 17.6123 11.3318 17.862 11.3728C18.1117 11.4097 18.3615 11.4631 18.603 11.5533C18.8446 11.6394 19.0738 11.7584 19.2826 11.9019C19.385 11.9716 19.4873 12.0496 19.5815 12.1316C19.6756 12.2136 19.7657 12.2956 19.8558 12.3777C20.0318 12.5417 20.2079 12.7058 20.4003 12.8329C20.5927 12.9601 20.8097 13.0421 21.0348 13.079C21.1495 13.0995 21.2641 13.1036 21.3787 13.1036C21.4934 13.1036 21.6039 13.0913 21.7103 13.0667C21.9232 13.0134 22.1197 12.9108 22.2999 12.7755C22.48 12.6401 22.6519 12.4802 22.8198 12.312C22.9917 12.148 23.1678 11.9716 23.3602 11.8117C23.5526 11.6476 23.7655 11.4959 23.9948 11.3687C24.224 11.2416 24.4779 11.1432 24.7358 11.0775C24.9937 11.0119 25.2598 10.9791 25.5218 10.975C25.7838 10.9709 26.0458 10.9914 26.2997 11.0365C26.4266 11.057 26.5535 11.0857 26.6763 11.1144C26.7991 11.1473 26.922 11.1801 27.0448 11.217C27.1676 11.2539 27.2863 11.2949 27.405 11.34C27.5238 11.3851 27.6425 11.4344 27.7612 11.4918C27.9946 11.6025 28.2197 11.7337 28.4326 11.8855C28.6455 12.0414 28.842 12.2177 29.0181 12.4146C29.1941 12.6155 29.3415 12.837 29.4561 13.0708C29.5707 13.3046 29.6608 13.5506 29.7181 13.8008C29.7754 14.051 29.8164 14.2971 29.8369 14.5432L29.8696 14.9041C29.8819 15.0189 29.8942 15.1379 29.9228 15.2363C29.931 15.2609 29.9392 15.2855 29.9474 15.306L29.9556 15.3224C29.9597 15.3265 29.9597 15.3306 29.9638 15.3388L29.9883 15.3757C30.0211 15.425 30.0538 15.4742 30.0907 15.5234C30.1603 15.6218 30.2299 15.7162 30.3036 15.8105C30.4509 15.9992 30.6065 16.1837 30.7703 16.3601L30.7293 16.4052C30.541 16.2493 30.3609 16.0853 30.1889 15.913C30.103 15.8269 30.0211 15.7367 29.9392 15.6423C29.8983 15.5972 29.8573 15.548 29.8205 15.5029L29.7918 15.466C29.7836 15.4537 29.7673 15.4373 29.7591 15.4209C29.7386 15.3881 29.7181 15.3593 29.7058 15.3265C29.6444 15.1994 29.6117 15.0764 29.583 14.9574L29.4971 14.6006C29.4684 14.4858 29.4397 14.3709 29.4111 14.2561C29.3783 14.1453 29.3456 14.0346 29.3046 13.9239C29.2269 13.7106 29.1286 13.5055 29.014 13.3169C28.8993 13.1282 28.7601 12.956 28.6046 12.8001C28.2934 12.4925 27.9127 12.2546 27.4951 12.0783C27.2904 11.988 27.0734 11.9142 26.8524 11.8486C26.7991 11.8322 26.7418 11.8158 26.6886 11.7994L26.5207 11.7584C26.4102 11.7296 26.2997 11.705 26.1891 11.6845C25.747 11.6025 25.2966 11.5779 24.875 11.664C24.6621 11.705 24.4574 11.7789 24.2609 11.8732C24.0644 11.9675 23.8719 12.0906 23.6877 12.2259C23.3111 12.4925 22.9549 12.8329 22.5046 13.0913C22.2794 13.2184 22.0297 13.321 21.7636 13.3497C21.6326 13.3661 21.5015 13.3702 21.3705 13.3579C21.2436 13.3456 21.1167 13.3292 20.9939 13.3005C20.7442 13.243 20.5067 13.1364 20.2979 12.997C20.0891 12.8575 19.909 12.6853 19.7289 12.5294C19.5487 12.3695 19.3645 12.2259 19.1598 12.1111C19.0574 12.0537 18.9551 12.0085 18.8487 11.9675C18.7422 11.9306 18.6317 11.8978 18.517 11.8732C18.0667 11.7789 17.6041 11.7994 17.1374 11.8404C16.6748 11.8855 16.2203 11.9593 15.7987 12.107C15.377 12.2546 14.9962 12.4802 14.6974 12.8042C14.5459 12.9642 14.4149 13.1487 14.2962 13.3456C14.2348 13.444 14.1774 13.5465 14.1201 13.6532C14.0915 13.7065 14.0628 13.7598 14.026 13.8131L13.9768 13.8952L13.9236 13.9731C13.7762 14.1823 13.6125 14.3709 13.4323 14.5432C13.2522 14.7154 13.0639 14.8713 12.8633 15.0107L12.8101 14.9697Z" fill="#111825"/>
<path d="M18.7134 11.7873C18.3655 10.4421 17.9847 9.11732 17.5262 7.8295C17.2969 7.18558 17.0431 6.54987 16.7647 5.93467C16.4822 5.31947 16.1711 4.72067 15.8231 4.14648C15.6471 3.85939 15.4628 3.5846 15.2581 3.31801C15.0575 3.05142 14.8365 2.80124 14.5949 2.57157C14.4762 2.45673 14.3452 2.35009 14.2142 2.24756C14.1487 2.19834 14.0791 2.14502 14.0095 2.10401L13.903 2.03429L13.7925 1.96867C13.5018 1.79231 13.1989 1.63236 12.8877 1.48881C12.2654 1.20582 11.6063 1.00075 10.9349 0.881809C10.7671 0.8531 10.5992 0.828492 10.4273 0.807985C10.2594 0.79158 10.0875 0.779275 9.91961 0.771073C9.57981 0.754667 9.2441 0.771073 8.91249 0.812086C8.74873 0.832593 8.58498 0.865404 8.42941 0.902316C8.35162 0.922823 8.27793 0.947431 8.20833 0.972039C8.17558 0.984343 8.13873 1.00075 8.11008 1.01305C8.08142 1.02946 8.05685 1.04176 8.04048 1.05407V1.06637C8.04048 1.06637 8.04048 1.06637 8.04048 1.07047H8.04457C8.04457 1.07047 8.05276 1.06227 8.05685 1.05407C8.05685 1.05407 8.06095 1.04996 8.06095 1.04586C8.06504 1.04176 8.06504 1.03766 8.06914 1.03356C8.06914 1.02946 8.07323 1.02536 8.07323 1.02126C8.07323 1.01715 8.07732 1.00895 8.08142 1.00485C8.08551 0.992546 8.08551 0.980242 8.08551 0.963836C8.08551 0.947431 8.08551 0.931025 8.08142 0.91462C8.08142 0.902316 8.07732 0.885911 8.06914 0.873606C8.06504 0.865404 8.06504 0.861302 8.06095 0.857201C8.05685 0.8531 8.05685 0.848998 8.05276 0.844897C8.04867 0.840796 8.04867 0.836694 8.04457 0.832593C8.04048 0.828492 8.04048 0.828492 8.04048 0.82439C8.03639 0.820289 8.03229 0.816188 8.0282 0.812086C8.0241 0.807985 8.0241 0.807985 8.02001 0.803884H8.0241C8.0282 0.803884 8.03229 0.807985 8.03638 0.807985L8.07732 0.816188L8.19605 0.844897C8.35981 0.881809 8.52766 0.918721 8.69961 0.959735C9.3833 1.11148 10.0752 1.32475 10.7343 1.65286C11.0618 1.81692 11.3812 2.00968 11.6759 2.23936C11.9707 2.46903 12.245 2.73562 12.4824 3.03912C12.7158 3.34262 12.9123 3.67893 13.0515 4.03575C13.0842 4.12598 13.1211 4.21621 13.1497 4.30234C13.1784 4.38846 13.203 4.47459 13.2316 4.56072L13.3053 4.81911C13.3299 4.90523 13.3503 4.99136 13.3749 5.07749C13.5469 5.76652 13.6738 6.45964 13.7761 7.15277C13.8785 7.8459 13.9563 8.53903 14.0136 9.23626C14.0709 9.93349 14.1077 10.6307 14.1159 11.3279C14.12 11.6766 14.1159 12.0293 14.0995 12.3779C14.0955 12.464 14.0914 12.5543 14.0832 12.6404C14.0791 12.7265 14.0668 12.8167 14.0586 12.9029C14.0463 12.989 14.0381 13.0792 14.0177 13.1654C14.0013 13.2515 13.9808 13.3417 13.9481 13.4278L13.8744 13.4032C13.903 13.2433 13.8908 13.0669 13.8867 12.8988C13.8785 12.7265 13.8621 12.5543 13.8457 12.3861C13.813 12.0416 13.7679 11.7012 13.7229 11.3608C13.6287 10.6758 13.5223 9.99501 13.4077 9.31418C13.293 8.63336 13.1702 7.95664 13.0351 7.28402C12.9 6.6114 12.7526 5.94287 12.5766 5.29076C12.552 5.20873 12.5316 5.12671 12.5111 5.04878L12.4415 4.8068C12.4169 4.72477 12.3924 4.64685 12.3678 4.56892C12.3555 4.52791 12.3391 4.4951 12.3269 4.45819L12.2859 4.34745C12.1754 4.05625 12.0239 3.78556 11.8397 3.53538C11.6554 3.2852 11.4426 3.05552 11.1969 2.85046C10.9513 2.64539 10.6852 2.46493 10.3986 2.30908C10.112 2.15323 9.81316 2.01378 9.50202 1.89484C9.19088 1.7759 8.87155 1.66927 8.54404 1.56673C8.38028 1.51342 8.21652 1.4642 8.04457 1.41088C8.00363 1.39858 7.9586 1.38217 7.91357 1.36577L7.89719 1.35757L7.87672 1.34936C7.86034 1.34526 7.84806 1.33706 7.83169 1.33296L7.78665 1.30835C7.77028 1.30015 7.74981 1.28784 7.73343 1.27554C7.71296 1.25913 7.69249 1.24683 7.67202 1.23042C7.65974 1.21812 7.64746 1.20992 7.63927 1.19761C7.63518 1.18941 7.63108 1.18531 7.62289 1.17711C7.6188 1.1689 7.61061 1.1607 7.60652 1.1525C7.60242 1.1443 7.59424 1.13609 7.59014 1.12789C7.58605 1.11969 7.58196 1.11148 7.57377 1.09918C7.56558 1.07457 7.55739 1.04996 7.5492 1.02946C7.54511 1.00485 7.54102 0.97614 7.54102 0.947431C7.54102 0.918721 7.54511 0.898215 7.5533 0.873606C7.55739 0.861302 7.56149 0.848998 7.56149 0.840796C7.56558 0.832593 7.56967 0.82439 7.57377 0.812086C7.58196 0.795681 7.59424 0.775174 7.60243 0.76287C7.6188 0.738262 7.63927 0.713654 7.65565 0.697248L7.68021 0.67264C7.6884 0.664438 7.69659 0.660336 7.70477 0.652134L7.72934 0.635728L7.74981 0.623424C7.80712 0.586512 7.86034 0.561904 7.90947 0.545499C7.9586 0.524992 8.00773 0.512688 8.05685 0.496282C8.15102 0.471674 8.24518 0.451167 8.33934 0.438863C8.52357 0.410154 8.7037 0.39785 8.88384 0.393749C9.60437 0.377343 10.3044 0.475776 10.9881 0.627526C11.6718 0.779275 12.3391 0.996647 12.9901 1.25913C13.1497 1.32476 13.3135 1.39038 13.4732 1.4642C13.555 1.50111 13.6328 1.53803 13.7147 1.57494C13.7925 1.61185 13.8744 1.64876 13.9522 1.68978L14.0709 1.74719L14.1896 1.80871C14.2715 1.84973 14.3452 1.89484 14.423 1.93996C14.5744 2.03429 14.7259 2.13272 14.8692 2.23936C15.1599 2.45263 15.426 2.69461 15.6757 2.95709C15.9255 3.21548 16.1547 3.49437 16.3635 3.78556C16.7811 4.36796 17.1209 4.99956 17.3993 5.65168C17.6818 6.29969 17.9151 6.96821 18.1075 7.64493C18.3 8.32166 18.4555 9.00658 18.5702 9.69561C18.6848 10.3846 18.7708 11.0819 18.7912 11.7791L18.7134 11.7873Z" fill="#111825"/>
<path d="M23.7493 11.5413C23.8516 11.1271 23.9826 10.7251 24.1177 10.3232C24.2569 9.92128 24.4043 9.52345 24.564 9.12972C24.8833 8.34226 25.2477 7.57121 25.653 6.82476C25.8536 6.44744 26.0705 6.08242 26.2957 5.7174C26.525 5.35648 26.7624 4.99966 27.0163 4.65105C27.5198 3.95792 28.0848 3.2976 28.7275 2.71931C29.0509 2.43222 29.3907 2.16153 29.751 1.91955C30.1113 1.67757 30.492 1.4643 30.8891 1.28384C30.9874 1.23873 31.0897 1.19771 31.188 1.1567C31.2903 1.11979 31.3886 1.07467 31.495 1.04186L31.6506 0.988543L31.8021 0.939327C31.9044 0.906516 32.0068 0.877806 32.1091 0.849097C32.3138 0.791678 32.5185 0.730158 32.7232 0.67684C32.8256 0.648131 32.9279 0.623523 33.0303 0.594813L33.3373 0.520989C34.1602 0.324124 34.9954 0.172374 35.8428 0.0821445C36.6903 0.000117489 37.5418 -0.040896 38.4057 0.0575364C38.6226 0.0821445 38.8396 0.119057 39.0566 0.176476C39.1671 0.205185 39.2777 0.242097 39.3882 0.287212C39.4987 0.336428 39.6134 0.393847 39.7321 0.500482C39.7894 0.557901 39.8508 0.631725 39.8877 0.746563C39.8959 0.775273 39.904 0.803982 39.904 0.836793C39.9081 0.869604 39.9081 0.898313 39.904 0.931124C39.904 0.963935 39.8959 0.992644 39.8877 1.02135C39.8795 1.05006 39.8672 1.07467 39.859 1.09928C39.8099 1.19771 39.7526 1.25923 39.6953 1.31255C39.6666 1.33716 39.6379 1.36177 39.6093 1.38227C39.597 1.39048 39.5806 1.40278 39.5683 1.41098L39.5233 1.43559L39.4332 1.48481C39.4046 1.50121 39.3759 1.50941 39.3473 1.52582L39.2613 1.56273C39.2326 1.57504 39.204 1.58324 39.1753 1.59144L39.0893 1.62015C39.0607 1.62835 39.032 1.63656 39.0034 1.64066C38.9461 1.65296 38.8887 1.66937 38.8355 1.68167C38.6144 1.73089 38.4016 1.7596 38.1887 1.78831L37.5664 1.87033C37.157 1.92775 36.7599 1.99747 36.3791 2.10821C35.9984 2.21485 35.6299 2.36249 35.2901 2.54706C34.9504 2.73162 34.6392 2.96539 34.3608 3.23198C34.0824 3.49857 33.8368 3.80207 33.6198 4.13018C33.3987 4.45418 33.2227 4.8151 33.0548 5.17602C32.9771 5.36058 32.8952 5.54514 32.8297 5.73791L32.7273 6.025L32.6291 6.3244C32.4981 6.72223 32.3671 7.12006 32.2401 7.51789C31.9863 8.31765 31.7448 9.11742 31.5114 9.92538L31.1593 11.1394L30.9833 11.7464C30.9219 11.9473 30.8605 12.1524 30.7991 12.3534C30.6722 12.7594 30.5371 13.1655 30.3692 13.5592C30.2832 13.756 30.185 13.9488 30.0703 14.1334C29.9557 14.3179 29.8165 14.4902 29.6569 14.6296L29.5995 14.5763C29.7305 14.4164 29.8329 14.2359 29.9189 14.0513C30.0048 13.8627 30.0703 13.6699 30.1277 13.4689C30.1891 13.2721 30.2382 13.067 30.2832 12.8661C30.3283 12.661 30.3733 12.46 30.4142 12.2508L30.6599 11.0122C30.7418 10.598 30.8236 10.1838 30.9137 9.76953C31.0938 8.94106 31.2903 8.11669 31.5114 7.30052C31.5646 7.09545 31.622 6.89039 31.6793 6.68942C31.7407 6.48435 31.798 6.28338 31.8594 6.07832L31.9495 5.77482C31.9822 5.67228 32.0191 5.56565 32.0518 5.46312C32.1173 5.25395 32.2033 5.04888 32.2852 4.84381C32.3261 4.74128 32.3752 4.64285 32.4244 4.54031L32.494 4.38856C32.5185 4.33935 32.5472 4.29013 32.5718 4.24091C32.625 4.14248 32.6782 4.04405 32.7355 3.94972C32.7969 3.85539 32.8542 3.76105 32.9157 3.66672C33.1695 3.2935 33.4601 2.94078 33.7959 2.63318C34.1316 2.32558 34.5123 2.0631 34.9176 1.85393C35.3229 1.64886 35.7528 1.49711 36.1826 1.39048C36.6125 1.28384 37.0506 1.22232 37.4763 1.18131C37.6892 1.1608 37.9021 1.14439 38.1109 1.12389C38.3197 1.10748 38.5244 1.09108 38.7168 1.06237C38.9092 1.03366 39.0934 0.992644 39.2285 0.927023L39.2531 0.914718C39.2613 0.910617 39.2695 0.906516 39.2777 0.902414C39.294 0.894212 39.3063 0.886009 39.3186 0.877806C39.3391 0.861401 39.3555 0.844996 39.3555 0.849097C39.3555 0.849097 39.3555 0.853198 39.3555 0.8573C39.3514 0.861401 39.3555 0.865502 39.3555 0.869604C39.3555 0.873705 39.3555 0.881908 39.3555 0.886009C39.3555 0.89011 39.3595 0.894212 39.3595 0.898313C39.3677 0.910617 39.3636 0.898313 39.3473 0.877806C39.3309 0.8573 39.3022 0.836793 39.2736 0.812185C39.2408 0.791678 39.204 0.76707 39.1671 0.746563C39.0893 0.70555 38.9993 0.668637 38.9092 0.635827C38.725 0.570205 38.5285 0.516888 38.332 0.475874C37.9349 0.397948 37.5214 0.348732 37.1079 0.332327C36.8991 0.324124 36.6944 0.320023 36.4856 0.320023C36.2768 0.324124 36.068 0.332327 35.8633 0.348732C35.0322 0.406151 34.2053 0.549698 33.3987 0.771171C32.9934 0.881908 32.5963 1.00905 32.2074 1.1567C32.1091 1.19361 32.0109 1.23052 31.9167 1.27154L31.7734 1.32895L31.6342 1.39048C31.5401 1.43149 31.45 1.4766 31.3559 1.52172C31.2658 1.56683 31.1757 1.61605 31.0857 1.66937C30.7336 1.87443 30.3979 2.10821 30.0826 2.3666C29.7674 2.62498 29.4644 2.90387 29.1779 3.19507C28.8913 3.48626 28.6129 3.78976 28.3468 4.10557C28.0807 4.41727 27.8228 4.74128 27.573 5.06939C27.0777 5.7297 26.615 6.42283 26.1811 7.13236C25.7471 7.8419 25.3377 8.57194 24.9447 9.31428C24.7482 9.6834 24.5599 10.0566 24.3716 10.434C24.1832 10.8113 23.999 11.1886 23.823 11.57L23.7493 11.5413Z" fill="#111825"/>
<path d="M20.6295 48.4495C20.6295 48.4495 20.5107 48.671 20.7277 50.7996C20.9447 52.9241 21.698 56.1313 19.1106 59.4452C19.1106 59.4452 20.261 57.3904 19.7574 54.7615C19.2539 52.1325 19.2744 50.5084 20.0317 48.8514C20.0276 48.8514 20.0195 48.3059 20.6295 48.4495Z" fill="#111825"/>
<path d="M19.5283 48.9001C19.5283 48.9001 19.6798 49.0273 19.4628 49.5687C19.1271 50.4053 18.5621 52.0541 18.7095 53.3501C18.8528 54.6461 19.4997 57.0618 18.8528 58.3948C18.8528 58.3948 18.7464 56.34 18.2428 55.0809C17.7393 53.8218 17.4609 51.7383 18.8282 49.503" fill="#111825"/>
<path d="M18.1733 49.7044C18.247 50.1022 18.1938 50.5493 17.9441 51.0168C17.6943 51.4844 17.0434 52.924 17.2235 54.2938C17.4037 55.6637 17.8335 56.8161 17.6902 56.9228C17.5469 57.0294 15.9667 54.1708 16.2164 52.2636C16.4661 50.3565 17.5428 50.295 17.5797 49.7577C17.6165 49.2204 18.1733 49.7044 18.1733 49.7044Z" fill="#111825"/>
</svg>
